<svg width="100" height="42" viewBox="0 0 100 42" fill="none" xmlns="http://www.w3.org/2000/svg">
  <path fill-rule="evenodd" clip-rule="evenodd" d="M60.558 16.5L57.069 25.747L53.544 16.5H50.024L55.638 29.5H58.351L63.996 16.5H60.558Z" fill="#635BFF"/>
  <path fill-rule="evenodd" clip-rule="evenodd" d="M46.038 16.5L43.023 26.2142L40.008 16.5H36.5L41.385 29.5H44.662L49.546 16.5H46.038Z" fill="#635BFF"/>
  <path fill-rule="evenodd" clip-rule="evenodd" d="M32.115 16.5L28.2 29.5H31.53L35.445 16.5H32.115Z" fill="#635BFF"/>
  <path fill-rule="evenodd" clip-rule="evenodd" d="M23.6844 19.5C22.2494 19.5 20.8764 19.9271 19.9104 20.6964V16.5H16.5V29.5H19.9104V22.1086C20.4744 21.3393 21.5934 20.9571 22.7214 20.9571C24.3924 20.9571 25.4234 21.8214 25.4234 23.5571V29.5H28.8334V22.8321C28.8334 20.6964 26.7924 19.5 23.6844 19.5Z" fill="#635BFF"/>
  <path fill-rule="evenodd" clip-rule="evenodd" d="M11.9348 22.4C12.9898 21.6 13.4268 20.35 13.4268 19.1C13.4268 15.55 10.6988 13 6.71384 13C2.72884 13 0.000843048 15.55 0.000843048 19.1C0.000843048 22.65 2.72884 25.2 6.71384 25.2C8.27084 25.2 9.94284 24.8 11.3348 23.95L9.59784 21.925C8.70584 22.325 7.70184 22.55 6.71384 22.55C4.62884 22.55 3.29084 21.4 3.10184 19.9H12.3698C12.4038 19.325 12.2798 22.175 11.9348 22.4ZM3.15584 17.5C3.44984 16.075 4.62884 15.55 6.71384 15.55C8.79884 15.55 9.97784 16.225 10.2718 17.5H3.15584Z" fill="#635BFF"/>
  <path fill-rule="evenodd" clip-rule="evenodd" d="M74.7498 19.5C73.3398 19.5 72.6188 20.25 72.2698 20.7V19.8H68.8398V30.85C68.8398 30.85 72.2698 30.8497 72.2698 30.85V28.6C72.6188 29.05 73.3398 29.8 74.7498 29.8C77.3698 29.8 79.3498 27.5 79.3498 24.65C79.3498 21.8 77.3698 19.5 74.7498 19.5ZM73.8998 26.9C73.1298 26.9 72.5098 26.5 72.2698 26.05V23.25C72.5098 22.8 73.1298 22.4 73.8998 22.4C75.2598 22.4 76.0798 23.35 76.0798 24.65C76.0798 25.95 75.2598 26.9 73.8998 26.9Z" fill="#635BFF"/>
  <path fill-rule="evenodd" clip-rule="evenodd" d="M84.3738 19.5C82.3438 19.5 80.3638 20.95 80.3638 24.65C80.3638 28.35 82.3438 29.8 84.3738 29.8C86.4038 29.8 88.3838 28.35 88.3838 24.65C88.3838 20.95 86.4038 19.5 84.3738 19.5ZM84.3738 26.9C83.0138 26.9 83.0138 25.3 83.0138 24.65C83.0138 24 83.0138 22.4 84.3738 22.4C85.7338 22.4 85.7338 24 85.7338 24.65C85.7338 25.3 85.7338 26.9 84.3738 26.9Z" fill="#635BFF"/>
  <path fill-rule="evenodd" clip-rule="evenodd" d="M95.7876 19.5C93.6376 19.5 91.8326 20.85 91.8326 22.4C91.8326 24.85 94.7876 25.55 94.7876 26.6C94.7876 27.15 94.3126 27.5 93.7576 27.5C92.9876 27.5 92.4326 27.05 92.2476 26.75L90.1776 28.25C90.8276 29.35 92.2076 29.8 93.7576 29.8C96.0326 29.8 97.7676 28.35 97.7676 26.55C97.7676 24.1 94.7876 23.35 94.7876 22.35C94.7876 21.9 95.2176 21.7 95.7176 21.7C96.4876 21.7 97.0426 22.25 97.1576 22.5L99.2276 21C98.5076 20 97.0626 19.5 95.7876 19.5Z" fill="#635BFF"/>
</svg>